<?xml version="1.0" encoding="utf-8"?>
<!-- Generator: Adobe Illustrator 27.3.1, SVG Export Plug-In . SVG Version: 6.00 Build 0)  -->
<svg version="1.1" xmlns="http://www.w3.org/2000/svg" xmlns:xlink="http://www.w3.org/1999/xlink" x="0px" y="0px"
	 viewBox="0 0 532 612" style="enable-background:new 0 0 532 612;" xml:space="preserve">
<style type="text/css">
	.st0{clip-path:url(#SVGID_00000136404940066315601330000004579323807189724574_);}
	.st1{display:none;}
</style>
<g id="Camada_1">
	<g>
		<defs>
			<rect id="SVGID_1_" x="-239" width="1008" height="612"/>
		</defs>
		<clipPath id="SVGID_00000008832713963957795660000012439940084121589647_">
			<use xlink:href="#SVGID_1_"  style="overflow:visible;"/>
		</clipPath>
		<path style="clip-path:url(#SVGID_00000008832713963957795660000012439940084121589647_);" d="M121.09,26.75
			c-1.45-0.58-3.05-1.6-4.8-2.04c-1.16-0.29-3.2-0.15-3.49,0.44c-0.58,1.16-0.87,3.2-0.15,4.07c1.89,2.76,4.36,5.09,6.54,7.56
			c0.29-0.15,0.73-0.15,1.02-0.29C120.5,33.43,120.79,30.38,121.09,26.75L121.09,26.75z M67.59,160.2c2.47,2.76,5.67,4.8,8.14,7.7
			c1.74,2.18,5.38,2.62,7.56,4.51c5.52,4.8,11.77,8.29,18.46,11.34c3.63,1.6,6.98,3.63,10.61,5.38c0.58,0.29,1.6-0.29,2.33-0.58
			c-0.44-0.58-0.87-1.31-1.31-1.74c-1.31-1.02-2.47-2.04-3.92-2.91c-4.51-2.91-9.01-5.67-13.37-8.43c-2.62-1.74-5.23-3.63-7.7-5.38
			c0.15-0.29,0.29-0.58,0.29-0.73c-0.87,0.29-1.74,0.58-2.47,0.73l0.44-0.87c-0.87-0.73-1.74-1.74-2.76-2.33
			c-3.34-1.89-6.83-3.78-10.18-5.52c-2.04-1.02-4.22-1.89-6.69-3.05C67.15,159.18,67.15,159.9,67.59,160.2L67.59,160.2z
			 M118.47,51.31c-1.02-0.58-1.89-1.6-2.76-2.47c-2.47-2.91-5.38-5.09-8.87-6.69c-1.45-0.58-2.62-2.04-3.78-3.2
			c-2.62-2.47-5.09-5.23-8-7.56c-2.33-1.89-4.51-0.15-5.96,1.45c-0.58,0.58,0.15,3.05,0.87,3.92c3.78,3.78,8,7.27,11.92,10.9
			c3.34,3.05,6.54,6.25,9.74,9.45c2.76,2.76,5.52,5.67,8.43,8.43c0.87,0.87,2.47,1.6,3.63,1.45c0.73,0,1.16-1.89,1.31-2.18
			C125.3,60.47,121.38,53.06,118.47,51.31z M125.74,86.2c-2.04-4.51-6.69-6.4-8.87-10.47c-0.58-1.16-2.62-1.45-3.78-2.47
			c-5.23-4.07-10.61-8.29-15.7-12.65c-1.6-1.31-2.33-3.49-3.92-4.8c-1.45-1.31-3.34-1.89-4.94-2.91c-4.22-3.05-8.14-6.11-13.23-9.89
			c-0.73,0.73-3.05,1.74-3.63,3.49c-0.44,1.31,1.16,3.49,2.47,4.8c6.83,7.12,14.25,13.52,22.53,19.04c2.04,1.31,4.8,1.74,4.65,4.94
			c5.09,1.45,7.41,6.4,11.92,8.72c1.6,0.87,2.91,2.62,4.22,3.92c0.73,0.73,1.31,1.6,2.18,2.18c1.89,1.31,3.92,2.62,6.25,4.07
			C127.63,91.73,127.19,89.26,125.74,86.2z M130.53,119.06c-0.87-1.6-1.02-3.49-1.74-5.09c-1.45-3.2-4.07-5.23-6.98-7.27
			c-5.09-3.78-9.59-8.29-14.54-12.36c-1.89-1.6-4.07-2.91-6.69-4.51c0,0.15,0.15-0.58,0.15-0.44c-1.6-1.45-2.76-2.62-4.07-3.49
			c-2.33-1.74-4.8-3.49-7.27-5.09c-2.47-1.45-4.51-3.78-6.69-5.23c-3.05-1.89-5.09-5.67-9.59-5.67c-1.45,0-2.76-3.34-4.51-4.65
			c-2.18-1.74-2.91-4.94-6.54-5.38c-2.33-0.29-3.2,0.44-4.22,1.89c-3.34,4.51-3.2,5.09,1.02,8.58c4.22,3.49,7.85,8,12.65,10.47
			c4.51,2.47,7.41,6.83,12.21,8.87c3.34,1.45,5.81,4.51,8.72,6.69c2.04,1.6,4.22,3.34,6.4,4.8c3.05,2.04,6.11,3.92,9.16,5.96
			c1.31,0.87,2.18,2.33,3.2,3.49l0.44,0.87c2.91,1.89,5.96,3.63,8.58,5.67c3.05,2.47,5.96,5.23,9.16,8.29
			C130.83,123.56,131.99,121.67,130.53,119.06L130.53,119.06z M110.47,139.99c1.89,1.74,3.63,3.49,5.67,5.23
			c2.18,1.74,4.51,3.2,6.54,4.8c2.62,2.04,5.23,4.07,7.7,6.25c0.87,0.73,1.45,2.04,3.05,3.2c0.15-0.87,0.29-1.74,0.29-2.62
			c-0.15-2.62-1.02-5.23-0.58-7.56c0.87-4.94-2.33-7.27-5.23-9.74c-5.09-4.36-10.47-8.29-15.7-12.5c-1.45-1.16-2.62-2.62-4.07-3.63
			c-2.33-1.74-4.65-3.34-7.12-4.94l-0.44-0.44c-3.78-3.2-7.41-6.54-11.34-9.59c-2.76-2.18-5.96-3.78-8.87-5.67
			c-0.87-0.58-1.74-1.45-2.62-2.04c-4.51-3.49-9.3-6.83-13.66-10.61c-3.92-3.34-7.85-6.25-12.65-8.29c-1.45-0.58-3.2-1.89-4.65-2.91
			c-2.76-2.18-4.07-0.87-5.38,1.45c-0.29,0.44-0.44,0.87-0.87,1.31c-3.78,4.07,0.44,5.81,2.47,8c1.74,1.89,3.78,3.34,5.81,4.94
			c5.38,4.22,10.61,8.43,15.99,12.5c4.22,3.2,8.43,6.11,12.65,9.3c4.65,3.49,9.16,6.98,13.81,10.47c3.63,2.76,7.56,5.38,11.05,8.43
			c1.45,1.31,2.33,2.62,3.92,1.74C108.15,137.95,109.31,138.97,110.47,139.99L110.47,139.99z M36.34,115.42
			c0.58,1.74,1.89,3.49,3.34,4.8c3.2,3.05,6.54,5.96,10.03,8.43c4.36,3.05,9.3,5.52,13.81,8.58c2.76,1.89,5.09,4.65,7.85,6.69
			c3.92,2.91,8.14,5.38,12.21,8.14c4.8,3.2,9.45,6.69,14.25,10.03c1.45,1.02,2.91,2.04,4.36,2.91c7.27,4.65,14.39,9.59,21.81,13.96
			c3.05,1.74,4.51,5.67,8.29,5.96c1.02,0.15,2.76-0.58,3.2-1.31c1.16-2.47-1.16-9.3-3.2-11.19c-1.31-1.16-3.34-0.87-4.51-2.91
			c-1.31-2.04-3.78-3.49-5.96-4.94c-5.38-3.49-10.76-6.83-16.14-10.18c-0.29-0.15-0.73-0.29-0.73-0.44
			c-0.87-4.51-5.38-6.25-8.29-7.85c-3.49-1.74-5.67-6.25-10.32-5.96c-0.58,0-1.31-1.16-1.89-1.74c-2.76-2.62-5.52-5.38-8.43-7.85
			c-3.63-3.05-7.56-5.81-11.34-8.72c-0.29-0.15-0.58-0.44-0.87-0.44c-3.92,0.44-5.52-3.49-8.72-4.65c-3.05-1.31-5.09-4.8-8.14-6.25
			c-2.76-1.31-3.63-5.38-7.56-4.8c-0.44,0.15-1.16-1.02-1.74-1.74c-1.31-1.45-2.62-1.45-4.07,0.15
			C34.59,107.86,35.17,111.79,36.34,115.42L36.34,115.42z M267.33,575.08c1.31-1.02,2.76-2.18,3.63-3.63
			c1.45-2.04,3.49-2.91,5.67-3.63c0.15,0,0.44-0.29,0.44-0.44c-1.16-3.78,4.22-3.63,4.07-6.69c0-0.15,0.29-0.29,0.44-0.44
			c3.78-3.34,7.56-6.54,11.05-9.89c2.04-1.89,3.78-4.22,5.81-6.25c0.87-1.02,2.04-1.6,3.05-2.47c3.92-3.2,8-6.4,11.77-9.74
			c0.87-0.73,1.31-2.04,2.18-2.76c0.87-0.73,2.18-1.02,3.34-1.45c0.15-0.58,0-1.45,0.44-1.89c12.5-14.54,25.29-29.07,40.27-41.14
			c0.73-1.02,1.31-2.18,2.18-3.2c2.33-2.76,4.36-5.67,6.98-8.29c1.74-1.74,4.07-2.76,6.25-4.22c1.31-0.87,2.62-2.04,3.92-3.05
			l-0.44-0.87c-0.58,0-1.16,0.15-2.33,0.29c6.83-6.54,11.92-14.1,21.37-18.17c-1.6-0.29-2.04-0.29-3.05-0.58
			c1.16-1.16,2.04-2.04,2.91-2.76c2.62-2.47,5.23-5.09,7.85-7.41c0.87-0.73,2.04-1.16,2.91-1.89c0.44-0.44,0.73-1.16,0.58-2.04
			c2.18-1.74,4.36-3.34,7.12-5.52c-1.16,0.29-1.89,0.44-2.47,0.58c0-0.15-0.15-0.29-0.15-0.44c1.89-1.45,4.8-2.47,5.23-4.36
			c0.73-2.62,2.62-3.78,4.07-5.67c0.87-1.16,1.02-2.33,2.76-1.89c0.29,0.15,1.02-0.87,1.31-1.45c0.73-1.02,1.16-2.47,2.04-3.34
			c3.34-3.34,6.69-6.54,10.03-9.74c1.16-1.16,2.47-2.04,4.07-3.34c-1.02-2.04,1.45-2.47,2.91-3.49c0.15-0.15,0.58,0.15,0.58,0.15
			c1.6-2.62,5.96-2.62,5.96-6.69v-0.58c3.05-2.91,5.81-6.25,9.45-8.58c2.76-1.74,3.2-1.16,3.63-4.65c2.04-0.58,4.36-0.58,3.78-4.07
			c-0.15-1.02,1.6-2.47,2.47-3.78c1.16-1.45,2.33-1.02,3.78-0.29c0.58,0.29,1.16,0.15,2.47,0.15c-0.73-1.45-1.31-2.33-1.6-3.05
			c0.73-1.02,1.31-2.33,2.18-3.05c0.87-0.73,2.18-1.02,3.2-1.74c1.16-0.73,2.47-1.45,3.34-2.47c0.73-0.87,0.73-2.33,1.31-3.2
			c1.6-2.04,3.34-4.07,5.38-5.81c1.16-1.02,2.76-1.45,3.63-2.04c1.6-2.47,3.05-4.8,4.65-7.12c0.58-0.87,1.74-1.31,2.18-2.18
			c0.87-1.45,1.89-3.05,1.89-4.51c0-1.6-1.02-2.91-3.34-2.91c-1.16,0-2.33-1.6-4.07-3.05c0,0-0.15-1.16-0.73-1.6
			c-2.91-1.89-6.4-3.2-9.01-5.38c-3.63-3.2-9.16-4.51-10.47-10.47c-4.8,1.74-6.83-2.62-10.03-4.51c-4.8-2.91-9.3-6.25-13.81-9.45
			c-0.73-0.44-0.87-1.6-1.6-3.05c-1.02-0.29-2.62-0.58-4.36-1.02c0.15-0.15,0.44-0.29,0.58-0.58c-2.18-2.04-4.36-3.92-6.4-5.96
			c-2.33-2.33-2.33-2.33-3.63-1.89c-1.31-1.16-2.33-2.33-3.63-2.91c-3.05-1.6-5.23-3.92-7.41-6.54c-0.29-0.44-0.58-0.87-1.02-1.16
			c-3.49-2.47-7.12-4.8-10.61-7.56c-3.05-2.47-5.67-5.23-8.43-8c-1.16-1.02-2.18-2.18-3.2-3.34c-0.87-1.02-1.6-2.04-2.91-3.63
			c-3.2,0-5.52-2.91-8-5.81c-1.45-1.6-3.92-2.18-6.11-3.34c0.29-1.02,0.73-2.04,1.02-2.91c-3.63,1.02-7.41-0.73-9.74-4.8
			c-0.44-0.73-0.87-1.74-1.45-1.74c-5.09-0.15-6.83-4.36-9.59-7.27c-1.31-1.45-2.76-2.91-4.51-3.92c-5.67-3.2-10.03-8-14.54-12.5
			c-0.29-0.29-0.73-0.73-1.16-1.02c-3.63-1.74-6.54-4.36-9.01-7.56c-1.02-1.16-2.62-1.89-3.92-2.91c-3.34-2.33-6.69-4.36-9.74-6.83
			c-1.16-1.02-1.6-2.91-2.33-4.51c-3.2,1.16-4.22,0.73-6.4-3.2c-0.29-0.58-0.73-1.31-1.16-1.45c-2.62-0.87-3.78-2.91-5.09-5.09
			c-0.73-1.16-2.47-1.74-3.78-2.62c-4.65-3.2-9.59-5.81-13.66-9.59c-2.33-2.18-6.25-2.76-7.12-6.4c0-0.15-0.73-0.29-1.02-0.44
			c-2.04-0.87-4.07-1.31-5.52-3.63c-1.31-1.89-3.63-3.2-5.67-4.22c-3.2-1.74-6.54-3.05-9.88-4.8c-0.58-0.29-0.73-1.6-1.16-2.47
			c-6.98,1.16-4.65,7.7-6.4,11.05c0.44,1.6,1.02,2.47,1.02,3.34c0.15,8-0.29,15.99,0.73,23.84c0.44,3.78,1.02,7.56,1.31,11.34
			c0.58,8.14,2.62,16.57-1.16,24.57c-0.44,0.87-0.29,2.04-0.44,3.05c-0.29,2.18-0.58,4.36-1.02,6.54c-0.15,1.45-0.87,2.76,1.02,3.78
			c1.31,0.73,0.58,4.94-0.73,5.52c-5.09,2.18-5.23,2.33-7.85,6.98c-2.33-1.02-4.51-2.04-6.69-2.91c-0.44-0.73-0.73-1.89-1.31-1.89
			c-3.34-0.58-6.54-1.02-9.89-1.31c-4.51-0.44-9.01-0.73-13.52-1.02c-4.22-0.29-8.58-0.44-12.79-0.73
			c-1.31-0.15-2.62-0.73-4.07-0.73c-1.6-0.15-3.2,0.15-4.94,0.29c0-0.58-0.15-1.31-0.15-2.33c-0.58,0.15-1.02,0.15-1.31,0.44
			c-1.89,1.45-7.56,1.02-9.16-0.73c-0.58-0.58-1.31-1.02-2.04-1.16c-5.09-0.87-10.03-1.74-15.12-2.62
			c-0.58-0.15-1.16,0.44-1.74,0.44c-2.76,0.15-5.52,0.29-8.14,0.15c-0.44,0-0.87-1.31-1.45-2.18c-4.22-0.58-8.72-0.73-13.08-1.74
			c-3.92-0.87-7.7-2.62-11.48-3.92l-0.87-0.44c-6.25-1.16-12.65-2.33-18.9-3.63c-1.74-0.29-3.63-0.58-5.23-1.45
			c-4.07-2.18-8.58-3.34-12.94-4.8c-3.78-1.31-6.98-4.22-10.61-6.11c-4.65-2.33-7.85-6.54-12.79-8.43
			c-2.18-0.87-3.34-3.92-5.38-5.38c-3.2-2.18-6.4-4.07-9.01-6.98c-0.87-0.87-2.33-1.6-3.63-1.74c-2.76-0.29-3.05-3.2-4.8-4.51
			c-2.76-2.33-5.38-4.8-8-7.41c-2.47-2.33-5.38-4.22-6.11-8c-0.29-1.31-1.89-2.33-2.76-3.63c-0.73-1.16-1.16-2.62-1.74-3.78
			c-1.6-1.89-3.34-3.78-5.38-6.11c-0.73,1.31-1.89,2.62-1.89,3.92c-0.15,3.49,0.15,6.98,0.29,10.47v5.38c0,5.09,0.29,10.32,0,15.41
			c-0.15,3.34-1.02,6.69-1.45,10.03c-0.15,1.6-0.15,3.2,0,4.8c0.44,2.91,1.6,5.67,1.74,8.43c0.15,3.92-0.29,7.85-0.58,12.21
			c2.47,2.18,4.8,16.72,3.34,19.33c0.58,2.62,1.02,4.22,1.45,5.81c1.31,4.94-0.15,10.03,1.31,15.12c1.45,5.09,1.16,10.61-0.44,15.99
			c-0.58,1.74-0.73,3.34,0.29,5.23c1.02,1.89,0.73,4.36,1.02,6.54c0,0.58,0,1.02,0.15,1.6c0.58,3.92,1.16,8,1.89,11.92
			c1.02,4.8,2.47,9.45,1.89,14.54c4.8,6.83,2.18,14.97,3.92,22.24c1.31,5.67,2.76,11.48,3.78,17.3c0.58,3.2,0.44,6.54,0.87,9.74
			c0.15,1.6,1.31,3.05,1.45,4.65c0.73,6.11,4.07,11.34,5.81,17.01c1.74,6.11,4.36,11.63,6.98,17.44c1.45,3.34,3.2,6.54,4.94,9.74
			c0.44,0.87,1.16,1.89,1.31,2.91c0.44,3.63,2.33,6.25,4.65,9.01c1.45,1.6,2.04,4.07,3.2,5.67c1.31,1.31,2.62,2.62,3.78,3.92
			c3.78,4.22,7.41,8.58,11.19,12.94c0.44,0.58,0.87,1.16,1.31,1.74c3.2,4.65,7.41,8.29,12.36,11.05c1.74,0.87,3.2,2.47,4.8,3.63
			c6.25,4.51,12.65,8.87,19.04,13.23c0.87,0.58,2.18,0.73,3.2,1.02c4.65,1.16,9.45,1.74,13.66,3.49c3.63,1.6,7.41,2.62,11.05,3.63
			c5.09,1.45,10.18,2.33,15.41,3.2c6.25,1.02,12.65,1.6,18.9,2.47c5.67,0.73,11.34,1.6,17.15,0.87c4.22-0.44,8.58,0.29,12.79,0.44
			c1.74,0,3.49,0,5.38-0.15c4.65-0.29,9.3-0.44,13.96-0.87c2.18-0.15,4.36-0.73,6.69-0.73c4.36,0,7.7,4.51,6.25,8.43
			c-1.31,3.49,1.45,4.8,3.2,5.38c3.49,1.02,3.78,3.63,4.51,6.11c1.16,4.22,2.04,8.58,3.05,12.94c0.73,3.2,2.18,6.4,1.74,9.45
			c-0.58,4.8,0.87,9.01,1.6,13.37c0.29,1.45,1.02,2.76,1.31,4.22c2.04,10.18,0,20.21-2.33,30.09c-0.44,1.6-0.44,3.2-0.58,4.94
			l0.87,0.87C261.08,580.16,264.27,577.69,267.33,575.08L267.33,575.08z M226.19,509.66c-4.51,0.44-9.16,1.31-13.66,1.31
			c-7.27,0-14.39-0.58-21.66-0.87c-10.9-0.29-21.66-1.16-32.27-3.78c-6.4-1.6-12.94-2.04-19.33-3.2c-2.76-0.58-5.38-1.89-8-2.91
			c-1.16-0.44-2.33-1.74-3.34-1.6c-5.96,1.31-10.9-2.04-15.99-3.49c-3.92-1.16-8.58-2.76-10.61-7.12c-0.15-0.29-0.58-0.58-0.87-0.87
			l-7.85-5.67c-3.34-2.33-6.83-4.65-10.18-6.98c-2.47-1.74-5.09-3.2-7.27-5.23c-2.47-2.18-4.65-4.65-6.98-7.12
			c-0.44-0.44-0.73-1.16-1.16-1.6c-3.63-4.36-7.27-8.72-10.76-13.37c-1.89-2.47-3.49-5.09-5.09-7.85c-1.74-3.2-2.91-6.69-4.94-9.74
			c-2.18-3.34-5.09-6.25-7.56-9.3c-0.44-0.58-0.87-1.31-1.16-2.18c-1.31-3.92-2.47-7.7-3.92-11.63c-1.16-3.2-2.62-6.25-3.78-9.3
			c-1.45-3.92-2.91-7.7-4.22-11.63c-1.02-3.05-2.33-5.96-2.91-9.01c-0.73-3.63-0.44-7.41-1.02-11.05
			c-1.16-7.41-2.47-14.68-3.78-21.95c-0.73-4.36-2.47-8.72-2.18-12.94c0.29-5.52-0.73-10.76-2.18-15.99
			c-0.73-2.47-1.6-4.65-1.74-7.41c-0.29-6.25,0-12.5-1.74-18.75c-0.73-2.91-0.29-6.11-0.29-9.16c-0.58-7.41-0.73-15.26-0.87-22.97
			c-0.15-3.63-0.44-7.27-0.73-10.9c-0.44-4.8-1.02-9.74-1.74-14.54c-0.58-4.65-1.74-9.45-2.18-14.1c-0.29-3.92,0.15-7.7,0-11.63
			c-0.15-3.63-1.6-7.56-0.87-11.05c2.04-8.29-0.44-17.01,2.18-25.15c0.29-0.87,0.15-1.89,0.15-2.91c0-3.63-0.15-7.27,0-10.9
			c0.29-5.38,0.73-10.9,1.31-16.28c0.29-2.62,0.73-5.23,1.02-7.7c0.29-1.74,0.44-3.34,0.58-5.09c0.87-2.47,2.62-4.94,3.05-7.56
			c1.6-8.87,2.62-17.59,4.51-26.17c1.16-5.81-0.44-12.21,3.78-17.59c3.63-4.51,6.11-9.89,9.16-14.83c1.02-1.6,1.89-3.34,3.05-4.65
			c3.63-4.22,7.56-8.14,11.19-12.36c3.05-3.63,5.81-7.56,9.01-10.9c3.92-4.22,8.29-8,12.65-11.92c5.23-4.65,10.61-9.3,17.59-11.34
			c1.31-0.44,2.47-1.16,3.78-1.45c2.91-0.73,5.96-1.45,8.87-2.04c4.07-0.87,8.14-1.89,12.07-2.04c3.78-0.15,7.41,0.73,11.19,1.02
			c1.6,0.15,3.2-0.73,4.8-0.87c2.47-0.29,5.23-1.31,7.27-0.44c2.04,0.87,3.05,0.73,4.65-0.58c3.49-2.91,6.98-2.91,9.59,0.73
			c1.16,1.6,0.87,4.36,1.02,6.69c0.15,1.45,0.15,3.05,0.15,5.09c-0.15,0.58-0.58,1.89-0.58,3.05c0.15,2.62,0.58,5.09,0.73,7.7
			c0.29,5.67,0.44,11.19,0.73,16.86c0.29,4.22,0.87,8.29,1.02,12.36c0.15,1.89-0.73,3.92-0.58,5.96c0.15,3.05,1.02,6.25,1.02,9.3
			c0.29,6.54,0,13.23,0.44,19.92c0.29,5.67,1.31,11.34,1.89,17.15c0.44,3.78,0.58,7.7,0.87,11.48c0.44,5.38,1.16,10.61,1.6,15.99
			c0.29,4.36-0.15,8.72,0.15,13.08c0.58,7.85,1.45,15.85,2.18,23.7c0.29,2.18,0.44,4.36,1.16,6.4c1.74,4.36,1.89,8.58,1.02,13.08
			c-0.29,1.74-1.02,3.49-1.02,5.09s0.58,3.2,1.02,5.38c0.73,0.29,2.18,1.16,3.63,1.45c3.63,0.73,7.41,1.31,11.05,2.04
			c3.78,0.73,7.56,1.74,11.48,2.47c3.63,0.73,7.27,1.02,11.05,1.6c5.09,0.73,10.03,1.89,15.12,2.33c8.29,0.87,16.72,1.45,25,2.18
			c2.47,0.29,4.07-0.87,4.22-3.49c0.15-2.33,0.29-4.65,0.29-6.98c-0.15-5.67-0.15-11.48-0.58-17.15
			c-0.44-5.81-1.31-11.63-1.45-17.44c-0.15-2.76,0.73-5.52,0.87-8.43c0.15-6.69-0.87-13.52,1.74-19.92
			c1.16-2.76,1.45-5.96,2.04-8.87c0.29-1.45-0.29-3.05,0.29-4.22c1.6-3.92,3.34-7.85,5.09-11.77c0.73-1.6,1.31-2.76,3.49-1.74
			c2.47,1.16,4.94,1.89,7.56,2.76c4.51,1.6,9.16,2.62,13.37,4.65c4.51,2.18,8.43,5.23,12.79,7.7c5.09,3.05,9.3,7.12,14.25,10.47
			c1.31,0.87,2.62,1.6,3.78,2.47c2.33,1.74,4.51,3.63,6.83,5.38c3.49,2.62,7.27,5.09,10.76,7.85c5.67,4.51,10.18,10.61,16.28,14.68
			c2.04,1.45,3.63,3.34,5.67,4.94c3.05,2.47,6.25,4.65,9.3,6.98c5.09,4.07,10.18,8.29,15.26,12.5c2.62,2.18,4.94,4.51,7.56,6.69
			c3.2,2.62,6.54,5.23,9.89,7.85c3.34,2.62,6.69,5.09,9.88,7.85c1.89,1.6,3.63,3.49,5.52,5.09c4.8,4.22,9.89,8.14,14.68,12.36
			c2.04,1.74,3.78,4.36,5.67,5.81c2.91,2.18,5.96,4.07,8.43,6.69c2.04,2.18,3.63,4.8,5.81,6.69c2.91,2.47,6.25,4.36,9.16,6.83
			c1.31,1.02,2.04,2.91,3.49,3.92c3.34,2.62,6.98,4.94,10.47,7.41c4.8,3.49,9.45,7.27,14.25,10.76c1.89,1.31,4.36,2.04,6.11,3.49
			c4.36,3.49,8.43,7.41,12.65,11.05c1.89,1.6,3.92,3.05,5.81,4.65c3.2,2.62,6.4,5.38,9.74,7.7c3.63,2.47,7.56,4.65,11.34,6.98
			c1.45,0.87,2.91,1.74,4.36,2.76c3.05,1.89,4.8,5.52,3.92,7.56c-1.89,4.07-1.45,6.11,1.89,8.43c-0.58,3.92-2.18,7.27-5.81,9.3
			c-1.16,0.73-2.04,1.89-2.91,2.91c-2.04,2.47-4.22,5.09-6.11,7.7c-3.49,4.8-8.43,7.85-12.21,12.36
			c-4.51,5.38-9.88,10.03-13.96,15.99c-1.89,2.76-4.51,4.94-7.85,6.4c-1.31,0.58-2.18,2.33-3.2,3.63c-1.89,2.47-3.49,5.09-5.67,7.27
			c-2.62,2.62-5.67,4.8-8.43,7.27c-4.51,4.22-9.01,8.43-13.37,12.65c-1.74,1.6-3.05,3.63-4.36,5.67c-0.73,1.16-1.16,2.62-2.18,3.49
			c-1.6,1.45-3.05,2.33-4.22,4.51c-1.74,3.2-5.52,5.38-8.43,8c-1.89,1.74-5.23,3.34-5.38,5.23c-0.15,3.63-3.05,4.94-4.65,7.12
			c-3.34,4.51-7.56,8.29-11.48,12.36c-0.87,0.87-2.62,1.16-3.49,2.18c-1.89,1.89-3.34,4.22-5.23,6.11
			c-4.36,4.8-8.58,9.74-13.08,14.39c-1.89,1.89-4.51,3.05-6.83,4.51c-0.58,0.44-1.02,1.16-1.45,1.74c2.04,1.31,0.15,2.18-0.44,2.76
			c-6.54,6.54-12.94,13.23-20.06,19.04c-4.07,3.34-6.11,8.29-10.76,11.34c-2.91,2.04-4.51,6.11-7.12,8.72
			c-5.52,5.67-11.48,11.05-17.15,16.72c-3.92,3.92-9.16,6.11-12.5,10.76c-3.34,4.51-7.85,8.29-11.92,12.07
			c-1.31,1.31-2.62,2.47-3.78,3.92c-5.38,6.11-11.48,11.63-17.44,17.15c-3.2,2.91-6.83,5.38-10.18,8c-4.65,3.49-9.16,7.41-15.7,6.25
			c-0.44-0.15-1.02,0.58-1.45,0.58c-2.33-0.15-4.94,1.02-6.98-1.16c-1.31-1.31-2.76-2.33-4.22-3.49c-1.74-1.6-4.8-3.2-5.09-5.09
			c-0.73-4.51-0.44-9.3,0.15-13.81c0.87-5.96,2.62-11.77,3.78-17.73c0.29-1.74,0-3.49,0.15-5.23c0.58-5.52,1.16-11.05,1.6-16.72
			c0.15-1.02-0.29-1.89-0.58-2.91c-0.87-3.2-2.91-6.4-2.62-9.59c0.58-5.52-1.31-10.61-1.45-15.99c0-0.58-0.29-1.16-0.58-1.74
			c-1.02-2.76-2.04-5.67-3.2-9.01C228.37,509.52,227.35,509.66,226.19,509.66L226.19,509.66z"/>
	</g>
</g>
<g id="Camada_2" class="st1">
</g>
</svg>
